<svg xmlns="http://www.w3.org/2000/svg" xmlns:xlink="http://www.w3.org/1999/xlink" xml:space="preserve" width="50" height="50">
  <defs>
    <linearGradient id="c">
      <stop offset="0" stop-color="#00248a"/>
      <stop offset="1" stop-color="#49ffe3"/>
    </linearGradient>
    <linearGradient id="b">
      <stop offset="0"/>
      <stop offset="1" stop-color="#3b6aa7"/>
    </linearGradient>
    <linearGradient id="a">
      <stop offset="0" stop-color="#205"/>
      <stop offset="1" stop-color="#5df"/>
    </linearGradient>
    <linearGradient xlink:href="#b" id="e" x1="1082.3" x2="1110" y1="25.5" y2="1781.3" gradientUnits="userSpaceOnUse"/>
    <linearGradient xlink:href="#c" id="d" x1="1082.3" x2="1110" y1="25.5" y2="1781.3" gradientUnits="userSpaceOnUse"/>
  </defs>
  <path fill="url(#d)" stroke="url(#e)" d="M1643 1549c-16-61-23-74-39-72l-74 8-55 5 70-23c83-28 132-52 162-80 13-11 25-18 28-15s-14 23-39 46l-44 40 18 64 17 63 48-2c61-2 177-58 227-110l37-38-42-56c-23-31-51-73-62-93s-23-36-28-36c-21 0-190 95-223 125-36 33-54 37-54 12 0-7-4-18-9-25-7-11-18-7-52 17-56 41-93 39-97-5-2-23 5-39 28-64 17-18 29-34 28-36-11-11-113 28-155 59-100 73-131 82-288 82-164-1-307-25-467-81a873 873 0 0 1-243-117A633 633 0 0 1 45 760c-8-72 11-235 35-306 67-193 250-348 479-405 74-19 104-21 240-16 157 5 200 12 536 88 83 19 128 23 265 23 146-1 176-4 259-26 144-40 174-15 110 88a603 603 0 0 1-493 284c-108 0-174-16-320-80a701 701 0 0 0-366-67c-229 10-370 103-370 243 0 65 10 92 51 139 37 41 101 76 173 94 50 12 288 32 295 25 3-2-8-17-24-34-33-34-28-55 15-64 76-15 178 8 248 55l45 30 141-21c77-12 197-32 266-46 220-43 317-42 334 3 9 22-12 43-43 43-30 0-105 19-99 25 2 3 43 1 91-3 77-7 90-6 104 10 33 36 20 66-68 154l-83 84 50-6c129-16 125 69-4 91l-42 7 32 61c18 34 54 90 81 125 26 35 47 70 47 79 0 28-90 104-166 140-51 24-94 37-137 40l-63 5zm-481-170c51-11 142-51 151-66 3-5-90-8-206-8-178 0-230-4-322-23-141-28-264-69-368-124a811 811 0 0 1-298-292c-41-85-50-72-13 21 39 99 81 159 163 235 144 133 372 222 676 261 65 9 167 6 217-4zm385-57a679 679 0 0 1 337-182c43-11 81-22 84-25 15-14-14-17-71-7-131 24-437 204-437 258 0 24 17 16 87-44zm216-60 79-35c17-6 14-47-3-47-23 0-148 64-196 101-46 34-52 43-43 59 10 19 13 18 55-15 25-19 74-47 108-63zm-333-11c123-25 217-61 308-118 94-58 262-219 262-250 0-22-4-23-67-23-62 0-263 27-338 45-20 5-27 4-20-2 16-17 267-111 313-119 23-3 39-10 36-15-18-30-345 27-445 77-101 50-143 146-104 237 11 27-10 20-23-7-35-78-22-146 41-209 22-22 33-38 25-34-9 3-52 11-97 17l-80 12 14 29c20 37 19 60-1 34-34-46-91-98-129-118-37-18-169-40-188-30-4 3 16 31 44 64 49 57 128 109 164 109 8 0 15 5 15 10 0 25-115-10-156-48-30-27-38-29-153-35-156-9-258-30-349-72a495 495 0 0 1-219-204c-25-50-28-67-28-156s3-106 27-156c15-30 46-75 68-99s39-45 37-46c-8-8-142 104-177 149C29 519 47 786 256 996c145 147 375 241 667 274 118 14 399 3 507-19zM409 685c-30-50-31-135-2-191 43-82 143-148 261-173 95-20 266-14 413 15 268 52 430 42 580-33 67-33 219-163 174-148-109 36-366 31-550-10-304-68-355-76-475-82-149-6-221 5-307 48a412 412 0 0 0-187 189c-27 56-31 76-31 145 1 95 27 162 95 238 49 55 61 56 29 2zm1236-255a605 605 0 0 0 325-292c0-5-11-8-25-8-18 0-47 22-103 78a657 657 0 0 1-303 177c-70 16-252 20-311 6-105-24 31 34 147 63 50 12 211-2 270-24z" style="mix-blend-mode:lighten" transform="matrix(.0251 0 0 -.0314 -1 51)"/>
  <path fill="#238cb4" d="M42 19v2c1 1 2 0 2-1l-2-1z"/>
  <path fill="#248fb5" d="M47 23h1-1z"/>
</svg>
