<?xml version="1.0" encoding="UTF-8" standalone="no"?>
<!-- Created with Inkscape (http://www.inkscape.org/) -->

<svg
   width="297mm"
   height="210mm"
   viewBox="0 0 1122.5197 793.70081"
   version="1.1"
   id="svg1"
   xml:space="preserve"
   sodipodi:docname="LOGO.svg"
   inkscape:version="1.4.2 (f4327f4, 2025-05-13)"
   xmlns:inkscape="http://www.inkscape.org/namespaces/inkscape"
   xmlns:sodipodi="http://sodipodi.sourceforge.net/DTD/sodipodi-0.dtd"
   xmlns:xlink="http://www.w3.org/1999/xlink"
   xmlns="http://www.w3.org/2000/svg"
   xmlns:svg="http://www.w3.org/2000/svg"><sodipodi:namedview
     id="namedview1"
     pagecolor="#ffffff"
     bordercolor="#000000"
     borderopacity="0.25"
     inkscape:showpageshadow="2"
     inkscape:pageopacity="0.0"
     inkscape:pagecheckerboard="0"
     inkscape:deskcolor="#d1d1d1"
     inkscape:document-units="mm"
     inkscape:zoom="0.97391865"
     inkscape:cx="561.13516"
     inkscape:cy="396.85039"
     inkscape:window-width="1920"
     inkscape:window-height="991"
     inkscape:window-x="-9"
     inkscape:window-y="-9"
     inkscape:window-maximized="1"
     inkscape:current-layer="layer1" /><defs
     id="defs1"><linearGradient
       id="linearGradient10585"><stop
         style="stop-color:#220055;stop-opacity:1"
         offset="0"
         id="stop10585" /><stop
         style="stop-color:#55ddff;stop-opacity:1"
         offset="1"
         id="stop10586" /></linearGradient><linearGradient
       id="linearGradient10583"><stop
         style="stop-color:#220055;stop-opacity:1"
         offset="0"
         id="stop10583" /><stop
         style="stop-color:#55ddff;stop-opacity:1"
         offset="1"
         id="stop10584" /></linearGradient><linearGradient
       id="swatch10582"><stop
         style="stop-color:#000046;stop-opacity:1;"
         offset="0"
         id="stop10582" /></linearGradient><linearGradient
       id="swatch10581"><stop
         style="stop-color:#a05a2c;stop-opacity:1;"
         offset="0"
         id="stop10581" /></linearGradient><linearGradient
       id="swatch10580"><stop
         style="stop-color:#000000;stop-opacity:1;"
         offset="0"
         id="stop10580" /></linearGradient><linearGradient
       id="swatch13"><stop
         style="stop-color:#000000;stop-opacity:0.8888889;"
         offset="0"
         id="stop13" /></linearGradient><color-profile
       name="Black-White"
       xlink:href="../../../../../WINDOWS/system32/spool/drivers/color/BlackWhite.icc"
       id="color-profile2" /><linearGradient
       xlink:href="#linearGradient10583"
       id="linearGradient10584"
       x1="1090.4587"
       y1="-5.3620305"
       x2="1078.6981"
       y2="2081.5679"
       gradientUnits="userSpaceOnUse" /><linearGradient
       xlink:href="#linearGradient10585"
       id="linearGradient10586"
       x1="1090.4587"
       y1="-5.3620305"
       x2="1078.6981"
       y2="2081.5679"
       gradientUnits="userSpaceOnUse" /></defs><g
     id="layer1"
     transform="translate(-638.65706,16.428477)"><g
       transform="matrix(0.13333334,0,0,-0.13333334,1034.511,474.32034)"
       fill="#000000"
       stroke="none"
       id="g3"><path
         d="m 1643,1549 c -16,-61 -23,-74 -39,-72 -10,2 -44,5 -74,8 l -55,5 70,-23 c 83,-28 132,-52 162,-80 13,-11 25,-18 28,-15 3,3 -14,23 -39,46 l -44,40 18,64 17,63 48,-2 c 61,-2 177,-58 227,-110 l 37,-38 -42,-56 c -23,-31 -51,-73 -62,-93 -11,-20 -23,-36 -28,-36 -21,0 -190,95 -223,125 -36,33 -54,37 -54,12 0,-7 -4,-18 -9,-25 -7,-11 -18,-7 -52,17 -56,41 -93,39 -97,-5 -2,-23 5,-39 28,-64 17,-18 29,-34 28,-36 -11,-11 -113,28 -155,59 -100,73 -131,82 -288,82 -164,-1 -307,-25 -467,-81 C 459,1292 417,1272 335,1217 166,1102 66,944 45,760 37,688 56,525 80,454 147,261 330,106 559,49 633,30 663,28 799,33 c 157,5 200,12 536,88 83,19 128,23 265,23 146,-1 176,-4 259,-26 144,-40 174,-15 110,88 -107,171 -302,284 -493,284 -108,0 -174,-16 -320,-80 -135,-59 -219,-74 -366,-67 -229,10 -370,103 -370,243 0,65 10,92 51,139 37,41 101,76 173,94 50,12 288,32 295,25 3,-2 -8,-17 -24,-34 -33,-34 -28,-55 15,-64 76,-15 178,8 248,55 l 45,30 141,-21 c 77,-12 197,-32 266,-46 220,-43 317,-42 334,3 9,22 -12,43 -43,43 -30,0 -105,19 -99,25 2,3 43,1 91,-3 77,-7 90,-6 104,10 33,36 20,66 -68,154 l -83,84 50,-6 c 129,-16 125,69 -4,91 l -42,7 32,61 c 18,34 54,90 81,125 26,35 47,70 47,79 0,28 -90,104 -166,140 -51,24 -94,37 -137,40 l -63,5 z m -481,-170 c 51,-11 142,-51 151,-66 3,-5 -90,-8 -206,-8 -178,0 -230,-4 -322,-23 C 644,1254 521,1213 417,1158 305,1099 167,964 119,866 78,781 69,794 106,887 c 39,99 81,159 163,235 144,133 372,222 676,261 65,9 167,6 217,-4 z m 385,-57 c 131,-112 200,-150 337,-182 43,-11 81,-22 84,-25 15,-14 -14,-17 -71,-7 -131,24 -437,204 -437,258 0,24 17,16 87,-44 z m 216,-60 c 34,-16 70,-32 79,-35 17,-6 14,-47 -3,-47 -23,0 -148,64 -196,101 -46,34 -52,43 -43,59 10,19 13,18 55,-15 25,-19 74,-47 108,-63 z m -333,-11 c 123,-25 217,-61 308,-118 94,-58 262,-219 262,-250 0,-22 -4,-23 -67,-23 -62,0 -263,27 -338,45 -20,5 -27,4 -20,-2 16,-17 267,-111 313,-119 23,-3 39,-10 36,-15 -18,-30 -345,27 -445,77 -101,50 -143,146 -104,237 11,27 -10,20 -23,-7 -35,-78 -22,-146 41,-209 22,-22 33,-38 25,-34 -9,3 -52,11 -97,17 l -80,12 14,29 c 20,37 19,60 -1,34 -34,-46 -91,-98 -129,-118 -37,-18 -169,-40 -188,-30 -4,3 16,31 44,64 49,57 128,109 164,109 8,0 15,5 15,10 0,25 -115,-10 -156,-48 C 974,885 966,883 851,877 695,868 593,847 502,805 411,762 320,678 283,601 258,551 255,534 255,445 c 0,-89 3,-106 27,-156 15,-30 46,-75 68,-99 22,-24 39,-45 37,-46 -8,-8 -142,104 -177,149 -181,226 -163,493 46,703 145,147 375,241 667,274 118,14 399,3 507,-19 z M 409,685 c -30,-50 -31,-135 -2,-191 43,-82 143,-148 261,-173 95,-20 266,-14 413,15 268,52 430,42 580,-33 67,-33 219,-163 174,-148 -109,36 -366,31 -550,-10 C 981,77 930,69 810,63 661,57 589,68 503,111 420,153 354,220 316,300 c -27,56 -31,76 -31,145 1,95 27,162 95,238 49,55 61,56 29,2 z M 1645,430 c 118,-45 216,-123 289,-231 20,-29 36,-57 36,-61 0,-5 -11,-8 -25,-8 -18,0 -47,22 -103,78 -87,88 -196,151 -303,177 -70,16 -252,20 -311,6 -105,-24 31,34 147,63 50,12 211,-2 270,-24 z"
         id="path1"
         style="opacity:1;fill:url(#linearGradient10584);fill-opacity:1;stroke:url(#linearGradient10586)" /><path
         d="m 1728,1009 c -24,-13 -23,-42 2,-64 36,-33 83,13 54,53 -17,24 -30,27 -56,11 z"
         id="path2"
         style="fill:#3b6aa7;fill-opacity:1" /><path
         d="m 1910,901 c 0,-5 6,-14 14,-20 16,-13 32,2 21,19 -8,12 -35,13 -35,1 z"
         id="path3"
         style="fill:#385f9e;fill-opacity:0.97647059" /></g></g></svg>
